<?xml version="1.0" encoding="UTF-8"?>
<svg width="26px" height="26px" viewBox="0 0 26 26" version="1.1" xmlns="http://www.w3.org/2000/svg" xmlns:xlink="http://www.w3.org/1999/xlink">
    <!-- Generator: Sketch 61.2 (89653) - https://sketch.com -->
    <title>close</title>
    <desc>Created with Sketch.</desc>
    <g id="Final" stroke="none" stroke-width="1" fill="none" fill-rule="evenodd">
        <g id="Team-tag-Copy-2" transform="translate(-994.000000, -306.000000)" fill="#10365C" fill-rule="nonzero">
            <path d="M1007,306 C1014.1797,306 1020,311.820298 1020,319 C1020,326.179702 1014.1797,332 1007,332 C999.820298,332 994,326.179702 994,319 C994,311.820298 999.820298,306 1007,306 Z M1007,308.6 C1001.25624,308.6 996.6,313.256239 996.6,319 C996.6,324.743761 1001.25624,329.4 1007,329.4 C1012.74376,329.4 1017.4,324.743761 1017.4,319 C1017.4,313.256239 1012.74376,308.6 1007,308.6 Z M1007,312 C1007.47549,312 1007.86844,312.353335 1007.93064,312.811764 L1007.93921,312.939209 L1007.939,318.06 L1013.06079,318.060791 C1013.5795,318.060791 1014,318.481289 1014,319 C1014,319.475485 1013.64666,319.868444 1013.18824,319.930635 L1013.06079,319.939209 L1007.939,319.939 L1007.93921,325.060791 C1007.93921,325.579502 1007.51871,326 1007,326 C1006.52451,326 1006.13156,325.646665 1006.06936,325.188236 L1006.06079,325.060791 L1006.06,319.939 L1000.93921,319.939209 C1000.4205,319.939209 1000,319.518711 1000,319 C1000,318.524515 1000.35334,318.131556 1000.81176,318.069365 L1000.93921,318.060791 L1006.06,318.06 L1006.06079,312.939209 C1006.06079,312.420498 1006.48129,312 1007,312 Z" id="close" transform="translate(1007.000000, 319.000000) rotate(45.000000) translate(-1007.000000, -319.000000) "></path>
        </g>
    </g>
</svg>