<?xml version="1.0" encoding="UTF-8"?>
<svg width="20px" height="22px" viewBox="0 0 20 22" version="1.1" xmlns="http://www.w3.org/2000/svg" xmlns:xlink="http://www.w3.org/1999/xlink">
    <!-- Generator: Sketch 61.2 (89653) - https://sketch.com -->
    <title>Combined Shape</title>
    <desc>Created with Sketch.</desc>
    <g id="Final" stroke="none" stroke-width="1" fill="none" fill-rule="evenodd">
        <g id="Team-tag" transform="translate(-603.000000, -1697.000000)" fill="#10365C" fill-rule="nonzero">
            <path d="M614.5,1697 C619.19442,1697 623,1700.80558 623,1705.5 C623,1709.82778 619.765645,1713.40014 615.58226,1713.93175 L615.582584,1720.18959 C615.582584,1720.60872 615.134868,1720.94849 614.582584,1720.94849 C614.069748,1720.94849 613.647077,1720.65552 613.589311,1720.27809 L613.582584,1720.18959 L613.582461,1713.95105 C609.319562,1713.49351 606,1709.88442 606,1705.5 C606,1700.80558 609.80558,1697 614.5,1697 Z M614.5,1698.54545 C610.659111,1698.54545 607.545455,1701.65911 607.545455,1705.5 C607.545455,1709.34089 610.659111,1712.45455 614.5,1712.45455 C618.340889,1712.45455 621.454545,1709.34089 621.454545,1705.5 C621.454545,1701.65911 618.340889,1698.54545 614.5,1698.54545 Z" id="Combined-Shape" transform="translate(614.500000, 1708.974246) rotate(-42.000000) translate(-614.500000, -1708.974246) "></path>
        </g>
    </g>
</svg>