<?xml version="1.0" encoding="UTF-8"?>
<svg width="20px" height="22px" viewBox="0 0 20 22" version="1.1" xmlns="http://www.w3.org/2000/svg" xmlns:xlink="http://www.w3.org/1999/xlink">
    <!-- Generator: Sketch 61.2 (89653) - https://sketch.com -->
    <title>search</title>
    <desc>Created with Sketch.</desc>
    <g id="Final" stroke="none" stroke-width="1" fill="none" fill-rule="evenodd">
        <g id="Login" transform="translate(-1184.000000, -468.000000)" fill="#10365C" fill-rule="nonzero">
            <path d="M1195.5,468 C1200.19442,468 1204,471.80558 1204,476.5 C1204,480.827782 1200.76565,484.40014 1196.58226,484.93175 L1196.58258,491.189587 C1196.58258,491.608719 1196.13487,491.948492 1195.58258,491.948492 C1195.06975,491.948492 1194.64708,491.655524 1194.58931,491.278091 L1194.58258,491.189587 L1194.58246,484.951054 C1190.31956,484.493511 1187,480.884418 1187,476.5 C1187,471.80558 1190.80558,468 1195.5,468 Z M1195.5,469.545455 C1191.65911,469.545455 1188.54545,472.659111 1188.54545,476.5 C1188.54545,480.340889 1191.65911,483.454545 1195.5,483.454545 C1199.34089,483.454545 1202.45455,480.340889 1202.45455,476.5 C1202.45455,472.659111 1199.34089,469.545455 1195.5,469.545455 Z" id="search" transform="translate(1195.500000, 479.974246) rotate(-42.000000) translate(-1195.500000, -479.974246) "></path>
        </g>
    </g>
</svg>